<svg viewBox="198.859 168.75 365.646 441.422" xmlns="http://www.w3.org/2000/svg">
  <path fill="#49497a" d="M381.684 242.504a182.823 183.834 0 0 0-182.825 183.834 182.823 183.834 0 0 0 182.825 183.834 182.823 183.834 0 0 0 182.822-183.834 182.823 183.834 0 0 0-182.822-183.834m8.08 38.373a146.472 154.048 0 0 1 146.472 154.047 146.472 154.048 0 0 1-146.472 154.049 146.472 154.048 0 0 1-146.473-154.05 146.472 154.048 0 0 1 146.473-154.046"/>
  <path fill="red" d="M562.5 168.75c-125.96 33.021-75.45 152.874-235.365 226.273.687 8.244 1.286 15.468 1.945 21.793a31.575 30.565 0 0 1 27.602-15.74 31.575 30.565 0 0 1 31.574 30.567 31.575 30.565 0 0 1-11.828 23.84c7.979-.9 17.37-2.259 28.488-3.891C434.011 273.51 554.679 307.433 562.5 168.75"/>
  <circle fill="red" cx="356.256" cy="431.77" r="27.321"/>
  <path d="m336.257 414.441 37.889 37.681c-81.956 64.776-18.18 151.095 69.988 125.957-135.192 53.727-147.688-114.25-107.877-163.638" fill="red"/>
  <ellipse fill="#ff0" transform="rotate(1.13)" ry="14.117" rx="14.035" cy="427.017" cx="364.115"/>
  <path fill="#ff0" d="m367.111 442.248-21.655-17.766c-9.87 6.832-20.305 43.274-21.687 66.087 13.924-48.137 34.47-35.496 43.342-48.32"/>
</svg>
