<svg xmlns="http://www.w3.org/2000/svg" version="1.2" viewBox="0 0 173 178">
	<path fill="#111b29" fill-rule="evenodd"
		d="M13 0c1 0 4 3 9 11 6 9 8 11 11 12s4 1 13-4l19-7c8-2 12-3 21-3l21 2c5 1 13 4 20 8 10 4 11 5 14 4s4-2 8-8a409 409 0 0 1 12-15c2 0 3 2 6 7l4 16 2 18-2 19c-2 9-2 10 0 21a79 79 0 0 1-4 39 94 94 0 0 1-13 26 93 93 0 0 1-22 19l-11 6-12 4a99 99 0 0 1-50-2 93 93 0 0 1-22-12 88 88 0 0 1-26-29l-5-13-3-16V82l1-17-2-8-1-16c0-9 0-15 2-22L8 5l5-5zm52 32a63 63 0 0 0-19 11 70 70 0 0 0-23 36 80 80 0 0 0 0 29 85 85 0 0 0 13 27 72 72 0 0 0 24 18l12 4 15 2 16-2 12-4 12-7a73 73 0 0 0 18-22l4-10 3-16-1-17a66 66 0 0 0-30-43l-14-7-17-3-15 1-10 3zm19 33 6 10a1934 1934 0 0 1 25 46l-16 1-4-8-5-8-11 16h-8l-9-1 9-15 9-15-6-12-7-13 1-1 16-1z" />
</svg>