<svg xmlns="http://www.w3.org/2000/svg" version="1.2" viewBox="0 0 161 161"><path fill="#17314e" fill-rule="evenodd" d="m150 1 8 1 3 5v11l-3 14-6 10-13 11v9l-1 12c-2 3-4 5-11 9l-12 6-3-1-1-14c0-11 0-13-2-16l-5-5c-3-2-5-2-16-3l-15-1-1-3 6-11 8-11 22-1 4-6 10-9a50 50 0 0 1 19-7h9zm-18 21 2 5 5 2c2 0 4 0 5-2l2-4-2-4c-1-2-3-3-5-3l-5 2-2 4zM8 113c2 0 6 3 11 9 9 8 9 8 11 6l3-4 2-4 5 1c2 1 2 2 2 4 0 3-1 4-4 5l-5 2c-1 2-1 2 7 11 6 5 9 9 9 11l-3 4-9 2c-6 0-9 0-13-2l-11-7-8-10-3-11 1-10 2-6 3-1zm82-57 6 1 6 4 3 7c1 4 1 5-1 9-1 4-3 6-6 8l-13 4H74l-2-6 2-10 3-9 6-6 7-2zm-6 19c0 3 0 3 3 3l5-1q2-2 2-5t-2-4l-3-1-3 2-2 6zm-47 7a47 47 0 0 1 31 15l7 9a55 55 0 0 1 5 19l-2 5-3 2-3-1c-1-1-2-3-2-7l-3-12-7-9a37 37 0 0 0-21-11l-7-2-2-3 2-3 5-2zm1 15 10 3 10 7 5 10 2 9-2 5-3 1-4-1-1-5a21 21 0 0 0-8-15l-8-4-6-1-3-2 1-5c1-2 2-2 7-2z"/></svg>